<?xml version="1.0" encoding="utf-8"?>
<!-- Generator: Adobe Illustrator 15.0.2, SVG Export Plug-In . SVG Version: 6.00 Build 0)  -->
<!DOCTYPE svg PUBLIC "-//W3C//DTD SVG 1.1//EN" "http://www.w3.org/Graphics/SVG/1.1/DTD/svg11.dtd">
<svg version="1.1" xmlns="http://www.w3.org/2000/svg" xmlns:xlink="http://www.w3.org/1999/xlink" x="0px" y="0px" width="144px"
	 height="144px" viewBox="0 0 144 144" enable-background="new 0 0 144 144" xml:space="preserve">
<g id="Layer_1">
	<g>
		<g>
			<path fill="#636466" d="M117.119,53.399c-0.225,0.943-0.314,4.94-0.314,9.026c0,4.131,0.09,8.083,0.314,9.026
				c0.18,0.898,0.674,1.527,1.797,1.527c1.122,0,1.616-0.629,1.796-1.527c0.135-0.988,0.313-4.85,0.313-9.026
				c0-4.131-0.179-8.083-0.313-9.026c-0.18-0.898-0.674-1.527-1.796-1.527C117.793,51.872,117.299,52.501,117.119,53.399z"/>
			<path fill="#636466" d="M127.627,75.493c-1.841,2.29-4.58,3.144-8.711,3.144c-4.132,0-6.871-0.854-8.713-3.144
				c-1.886-2.38-2.379-5.703-2.379-13.068s0.493-10.688,2.379-13.068c1.842-2.29,4.581-3.144,8.713-3.144
				c1.174,0,2.224,0.079,3.185,0.229c-5.808-12.168-16.203-20.546-33.476-22.187c-7.044-0.669-18.199,5.376-21.247,5.611
				c-3.937,0.303-14.803-2.202-21.678,0.014c-25.102,8.09-33.544,26.089-31.695,50.083c2.044,26.539,27.141,46.437,57.331,45.488
				c1.006-0.031,2.381-1.615,3.396-1.693c1.021-0.079,3.219,1.027,4.222,0.902c28.628-3.528,49.203-24.908,49.21-49.94
				C127.997,74.99,127.821,75.248,127.627,75.493z M61.526,68.263h8.442v1.257c0,1.257,0.27,3.458,1.931,3.458
				c2.021,0,2.021-1.662,2.021-5.479c0-3.772-0.18-5.434-2.021-5.434c-1.437,0-1.931,1.302-1.931,2.515h-8.173l0.539-17.738h19.13
				v6.736h-12.26l-0.27,5.074h0.09c0.854-1.616,3.144-2.784,5.479-2.784c7.006,0,8.397,4.221,8.397,11.182
				c0,7.724-2.515,11.586-10.598,11.586c-4.131,0-10.778-0.674-10.778-9.116V68.263z M50.57,54.656c0-1.751-0.314-2.784-1.886-2.784
				c-1.707,0-1.841,1.886-1.841,3.144v1.976H38.4c0-3.817,0.674-6.512,2.335-8.263c1.661-1.751,4.266-2.515,8.173-2.515
				c9.52,0,10.643,4.625,10.643,8.757c0,4.491-1.392,7.095-3.682,9.251c-2.29,2.155-4.581,4.042-6.871,7.05h10.643v6.736H38.085
				c0.225-4.311,1.168-8.218,4.401-11.631l5.389-5.613c0.539-0.539,2.065-2.155,2.425-3.458
				C50.615,56.542,50.57,55.734,50.57,54.656z M97.271,54.656c0-1.751-0.314-2.784-1.887-2.784c-1.706,0-1.841,1.886-1.841,3.144
				v1.976h-8.442c0-3.817,0.674-6.512,2.336-8.263c1.66-1.751,4.266-2.515,8.172-2.515c9.521,0,10.643,4.625,10.643,8.757
				c0,4.491-1.392,7.095-3.682,9.251c-2.29,2.155-4.58,4.042-6.871,7.05h10.643v6.736H84.787c0.225-4.311,1.168-8.218,4.4-11.631
				l5.39-5.613c0.538-0.539,2.065-2.155,2.425-3.458C97.316,56.542,97.271,55.734,97.271,54.656z"/>
		</g>
		<path fill="#636466" d="M60.858,8.555c0,0-3.013,2.136-2.683,3.785c0.33,1.65,9.191,11.029,9.322,17.856
			c0.057,2.969,1.97,1.312,1.97,1.312S68.446,14.823,60.858,8.555z"/>
	</g>
</g>
<g id="Layer_2" display="none">
	<path display="inline" fill="#FFFFFF" d="M66.189,92.795c-2.145,0-3.393-1.482-3.393-3.55c0-2.041,1.248-3.536,3.393-3.536
		s3.393,1.495,3.393,3.536C69.583,91.312,68.334,92.795,66.189,92.795z"/>
	<path display="inline" fill="#FFFFFF" d="M116.759,92.262c0,2.027-1.17,3.016-3.302,3.016c-1.353,0-2.86-0.52-3.004-2.094h1.482
		c0.182,0.846,0.857,0.988,1.612,0.988c1.196,0,1.729-0.61,1.729-1.716V91.43h-0.027c-0.416,0.74-1.182,1.183-2.014,1.183
		c-2.133,0-3.017-1.612-3.017-3.536c0-1.807,1.131-3.367,3.042-3.367c0.845,0,1.611,0.338,1.988,1.105h0.027v-0.924h1.481V92.262z"
		/>
	<path display="inline" fill="#636466" d="M66.189,86.879c-1.326,0-1.911,1.209-1.911,2.366c0,1.171,0.585,2.38,1.911,2.38
		c1.326,0,1.911-1.209,1.911-2.38C68.101,88.088,67.516,86.879,66.189,86.879z"/>
	<path display="inline" fill="#636466" d="M113.47,86.879c-1.313,0-1.769,1.223-1.769,2.34c0,1.093,0.533,2.224,1.769,2.224
		c1.313,0,1.808-1.183,1.808-2.34S114.757,86.879,113.47,86.879z"/>
	<path display="inline" fill="#FFFFFF" d="M58.818,91.625c0.871,0,1.456-0.56,1.599-1.535h1.482
		c-0.273,1.756-1.352,2.705-3.081,2.705c-2.106,0-3.263-1.496-3.263-3.472c0-2.028,1.105-3.614,3.315-3.614
		c1.56,0,2.886,0.78,3.029,2.432h-1.482c-0.117-0.832-0.702-1.262-1.534-1.262c-0.767,0-1.846,0.416-1.846,2.444
		C57.038,90.441,57.532,91.625,58.818,91.625z"/>
	<path display="inline" fill="#FFFFFF" d="M76.72,92.612h-1.481v-4.226c-0.039-1.053-0.43-1.508-1.313-1.508
		c-0.988,0-1.625,0.78-1.625,1.769v3.965h-1.482v-6.722h1.404v0.988l0.026,0.026c0.455-0.741,1.209-1.196,2.093-1.196
		c1.469,0,2.379,0.768,2.379,2.288V92.612z"/>
	<path display="inline" fill="#FFFFFF" d="M80.893,92.795c-1.703,0-2.938-0.754-2.977-2.341h1.481
		c0.091,0.871,0.728,1.171,1.521,1.171c0.572,0,1.535-0.117,1.496-0.885c-0.039-0.779-1.119-0.871-2.197-1.118
		c-1.092-0.233-2.158-0.624-2.158-1.989c0-1.469,1.586-1.924,2.809-1.924c1.377,0,2.639,0.559,2.807,2.067h-1.547
		c-0.143-0.715-0.701-0.897-1.364-0.897c-0.429,0-1.222,0.104-1.222,0.689c0,0.729,1.092,0.845,2.184,1.079
		c1.079,0.247,2.171,0.637,2.171,1.963C83.896,92.209,82.283,92.795,80.893,92.795z"/>
	<path display="inline" fill="#FFFFFF" d="M90.928,92.612h-1.455v-0.937h-0.026c-0.364,0.677-1.171,1.119-1.911,1.119
		c-1.768,0-2.51-0.871-2.51-2.64v-4.265h1.482v4.121c0,1.184,0.469,1.613,1.287,1.613c1.235,0,1.651-0.794,1.651-1.834v-3.9h1.481
		V92.612z"/>
	<rect x="92.527" y="83.33" display="inline" fill="#FFFFFF" width="1.481" height="9.282"/>
	<path display="inline" fill="#FFFFFF" d="M98.885,86.996h-1.34v3.588c0,0.611,0.053,0.924,0.715,0.924c0.209,0,0.416,0,0.625-0.053
		V92.6c-0.326,0.039-0.638,0.078-0.963,0.078c-1.56,0-1.819-0.599-1.858-1.717v-3.965h-1.118v-1.105h1.118v-2.014h1.481v2.014h1.34
		V86.996z"/>
	<rect x="99.988" y="85.891" display="inline" fill="#FFFFFF" width="1.482" height="6.722"/>
	<rect x="99.988" y="83.33" display="inline" fill="#FFFFFF" width="1.482" height="1.404"/>
	<path display="inline" fill="#FFFFFF" d="M108.984,92.612h-1.481v-4.226c-0.039-1.053-0.429-1.508-1.313-1.508
		c-0.988,0-1.625,0.78-1.625,1.769v3.965h-1.482v-6.722h1.404v0.988l0.026,0.026c0.455-0.741,1.209-1.196,2.093-1.196
		c1.469,0,2.379,0.768,2.379,2.288V92.612z"/>
</g>
</svg>
